<?xml version="1.0" encoding="iso-8859-1"?>
<!-- Generator: Adobe Illustrator 16.0.0, SVG Export Plug-In . SVG Version: 6.00 Build 0)  -->
<!DOCTYPE svg PUBLIC "-//W3C//DTD SVG 1.1//EN" "http://www.w3.org/Graphics/SVG/1.1/DTD/svg11.dtd">
<svg version="1.1" id="Capa_1" xmlns="http://www.w3.org/2000/svg"  x="0px" y="0px"
	 width="203.938px" height="203.938px" viewBox="0 0 203.938 203.938" style="enable-background:new 0 0 203.938 203.938;"
	 xml:space="preserve">
<g>
	<g>
		<polygon points="68.187,0 43.763,0 43.763,53.518 68.187,62.134 		"/>
		<polygon points="160.175,0 135.752,0 135.752,62.134 160.175,53.518 		"/>
		<path d="M112.399,83.309c-0.304,1.054-0.725,2.052-1.314,2.95c27.479,4.396,48.561,28.193,48.561,56.885
			c0,31.81-25.867,57.677-57.677,57.677c-31.807,0-57.676-25.867-57.676-57.677c0-28.691,21.081-52.488,48.561-56.885
			c-0.587-0.898-1.011-1.896-1.315-2.95c-28.558,4.969-50.363,29.876-50.363,59.835c0,33.521,27.273,60.794,60.794,60.794
			c33.521,0,60.794-27.272,60.794-60.794C162.763,113.185,140.958,88.277,112.399,83.309z"/>
		<path d="M92.354,80.279c0,2.898,1.346,5.45,3.392,7.207c-1.379,0.152-2.755,0.274-4.101,0.524l3.249,12.108
			c-2.865,0.463-5.633,1.205-8.281,2.204l-3.236-12.084c-1.927,0.673-3.791,1.452-5.611,2.323l6.248,10.821
			c-2.64,1.193-5.127,2.643-7.453,4.311l-6.272-10.86c-1.678,1.148-3.261,2.402-4.801,3.723l8.823,8.824
			c-2.22,1.82-4.253,3.854-6.074,6.07l-8.823-8.829c-1.321,1.546-2.579,3.13-3.733,4.811l10.866,6.271
			c-1.671,2.32-3.118,4.811-4.308,7.44l-10.817-6.247c-0.874,1.814-1.653,3.678-2.332,5.603l12.084,3.239
			c-1.005,2.661-1.754,5.432-2.22,8.306l-12.102-3.246c-0.375,1.967-0.625,3.988-0.773,6.022h12.471
			c-0.143,1.425-0.226,2.862-0.226,4.323c0,1.449,0.083,2.868,0.219,4.287H46.07c0.149,2.033,0.399,4.043,0.768,6.016l12.102-3.239
			c0.466,2.874,1.215,5.651,2.213,8.306l-12.084,3.239c0.673,1.918,1.452,3.788,2.326,5.608l10.817-6.248
			c1.185,2.625,2.63,5.109,4.296,7.436l-10.863,6.26c1.148,1.68,2.402,3.275,3.724,4.811l8.83-8.83
			c1.82,2.223,3.848,4.263,6.068,6.077l-8.823,8.829c1.541,1.315,3.13,2.57,4.801,3.721l6.272-10.863
			c2.326,1.675,4.807,3.118,7.444,4.317l-6.242,10.814c1.815,0.877,3.681,1.656,5.599,2.339l3.236-12.082
			c2.652,0.999,5.419,1.742,8.293,2.217l-3.249,12.105c1.988,0.377,4.016,0.621,6.074,0.779v-12.471
			c1.416,0.135,2.844,0.22,4.29,0.22c1.452,0,2.88-0.085,4.293-0.22v12.471c2.046-0.158,4.056-0.402,6.028-0.779l-3.239-12.105
			c2.874-0.463,5.639-1.205,8.293-2.204l3.239,12.081c1.925-0.676,3.788-1.455,5.608-2.326l-6.241-10.82
			c2.631-1.188,5.121-2.637,7.447-4.305l6.266,10.856c1.681-1.151,3.264-2.405,4.811-3.732l-8.83-8.817
			c2.217-1.826,4.257-3.854,6.077-6.077l8.823,8.829c1.321-1.546,2.576-3.142,3.727-4.816l-10.856-6.266
			c1.668-2.326,3.105-4.811,4.299-7.44l10.814,6.247c0.877-1.82,1.656-3.689,2.326-5.614l-12.081-3.233
			c1.005-2.654,1.747-5.432,2.216-8.306l12.1,3.246c0.371-1.974,0.615-3.982,0.768-6.028h-12.471
			c0.152-1.419,0.237-2.838,0.237-4.287s-0.085-2.887-0.22-4.311h12.471c-0.146-2.034-0.401-4.056-0.773-6.022l-12.099,3.245
			c-0.469-2.874-1.218-5.656-2.223-8.317l12.087-3.233c-0.676-1.931-1.455-3.794-2.338-5.608l-10.814,6.235
			c-1.193-2.618-2.631-5.103-4.299-7.416l10.862-6.272c-1.15-1.681-2.411-3.276-3.732-4.811l-8.823,8.817
			c-1.826-2.217-3.866-4.256-6.089-6.077l8.829-8.823c-1.547-1.321-3.142-2.575-4.811-3.724l-6.271,10.866
			c-2.326-1.668-4.811-3.105-7.441-4.299l6.242-10.817c-1.821-0.874-3.69-1.653-5.608-2.332l-3.239,12.078
			c-2.655-0.993-5.432-1.735-8.3-2.204l3.245-12.103c-1.327-0.25-2.709-0.372-4.067-0.523c2.046-1.757,3.392-4.309,3.392-7.207
			c0-3.379-1.76-6.342-4.402-8.056l19.218-6.783V0h-19.766v72.224h-9.353V0H77.539v65.44l19.218,6.784
			C94.114,73.938,92.354,76.899,92.354,80.279z M142.498,143.144c0,22.384-18.146,40.529-40.529,40.529
			c-22.383,0-40.529-18.146-40.529-40.529s18.146-40.529,40.529-40.529C124.353,102.614,142.498,120.76,142.498,143.144z
			 M97.679,99.707v-11.71h8.588v11.71c-1.412-0.138-2.847-0.217-4.292-0.217C100.522,99.497,99.089,99.569,97.679,99.707z
			 M101.969,75.234c2.777,0,5.042,2.262,5.042,5.045c0,2.779-2.265,5.039-5.042,5.039c-2.773,0-5.044-2.266-5.044-5.045
			C96.924,77.49,99.195,75.234,101.969,75.234z"/>
		<path d="M101.969,172.152c1.645,2.71,3.647,3.86,6.717,4.616c3.062,0.754,5.364,0.682,8.093-0.938
			C113.758,170.959,106.913,169.267,101.969,172.152z"/>
		<path d="M119.079,172.457c3.13-0.28,5.292-1.097,7.344-3.514c-4.445-3.623-11.46-3.002-15.198,1.346
			C113.66,172.311,115.926,172.743,119.079,172.457z"/>
		<path d="M127.495,165.004c2.886-1.285,4.67-2.753,5.821-5.718c-5.383-1.979-11.825,0.895-13.957,6.217
			C122.331,166.636,124.608,166.288,127.495,165.004z"/>
		<path d="M136.665,147.917c-5.736-0.121-10.875,4.689-11.168,10.413c3.186,0.098,5.237-0.975,7.539-3.118
			C135.338,153.057,136.537,151.084,136.665,147.917z"/>
		<path d="M128.986,149.55c3.026-0.938,4.634-2.619,6.096-5.396c1.479-2.788,1.979-5.042,1.06-8.086
			C130.686,137.821,127.385,144.058,128.986,149.55z"/>
		<path d="M133.432,133.023c0.493-3.111,0.207-5.407-1.638-7.983c-4.592,3.441-5.688,10.395-2.387,15.071
			C131.977,138.242,132.938,136.147,133.432,133.023z"/>
		<path d="M87.166,175.83c2.731,1.62,5.027,1.692,8.087,0.938c3.057-0.756,5.062-1.912,6.716-4.616
			C97.019,169.267,90.177,170.959,87.166,175.83z"/>
		<path d="M101.969,174.515c-2.725,0.847-4.402,3.922-3.641,6.674c1.521-0.45,2.319-1.278,3.074-2.648l0.566-1.528l0.572,1.528
			c0.749,1.382,1.553,2.198,3.069,2.648C106.378,178.437,104.697,175.361,101.969,174.515z"/>
		<path d="M77.515,168.938c2.037,2.423,4.208,3.239,7.343,3.52c3.151,0.28,5.407-0.152,7.852-2.181
			C88.975,165.941,81.954,165.32,77.515,168.938z"/>
		<path d="M84.566,165.503c-2.113-5.322-8.562-8.184-13.941-6.217c1.139,2.965,2.935,4.433,5.815,5.718
			C79.33,166.288,81.604,166.636,84.566,165.503z"/>
		<path d="M78.432,158.33c-0.28-5.724-5.419-10.528-11.156-10.413c0.119,3.167,1.315,5.146,3.629,7.308
			C73.201,157.355,75.25,158.428,78.432,158.33z"/>
		<path d="M74.951,149.55c1.589-5.492-1.695-11.729-7.158-13.481c-0.91,3.044-0.417,5.298,1.06,8.086
			C70.317,146.931,71.922,148.612,74.951,149.55z"/>
		<path d="M74.522,140.111c3.31-4.677,2.213-11.63-2.372-15.071c-1.857,2.576-2.131,4.878-1.638,7.983
			C71,136.147,71.965,138.242,74.522,140.111z"/>
		<path d="M94.007,118.397c-1.349,0.28-3.267,0.535-5.788,0.791v6.102h8.805v24.527c0,1.443-0.106,2.399-0.326,2.85l-0.989,0.975
			c-0.438,0.194-1.44,0.292-3.011,0.292h-4.473v6.102h27.079v-6.102h-4.421c-1.291,0-2.187-0.109-2.667-0.329l-0.999-1.114
			c-0.134-0.298-0.183-1.187-0.183-2.673v-34.404h-3.093c-1.088,0.524-2.26,0.98-3.52,1.353
			C98.154,117.454,96.014,118.001,94.007,118.397z"/>
	</g>
</g>
<g>
</g>
<g>
</g>
<g>
</g>
<g>
</g>
<g>
</g>
<g>
</g>
<g>
</g>
<g>
</g>
<g>
</g>
<g>
</g>
<g>
</g>
<g>
</g>
<g>
</g>
<g>
</g>
<g>
</g>
</svg>
