<svg version="1" xmlns="http://www.w3.org/2000/svg" width="693.333" height="693.333" viewBox="0 0 520.000000 520.000000"><path d="M318.7 9.6c-.3.3-.4 1.1-.1 1.8.3.7-.6 1.2-2.3 1.1-1.7 0-2.7.5-2.5 1.2.1.7-.7 1.3-1.8 1.3-1.3 0-2 .7-2 1.9 0 1.3-1.1 2.3-3.5 3.1-1.9.6-3.5 1.7-3.5 2.4 0 1.6-4.2 9.6-7.1 13.5-2.9 4-2.9 14.2 0 19.7 1.2 2.1 2.1 4.2 2.1 4.6 0 .5 2.5 5.1 5.6 10.4 5.9 10.4 6.3 13.5 2.3 17.5-1 1-1.9 2.5-1.9 3.2 0 .6-2.1 2.3-4.6 3.7-2.5 1.3-6.2 3.7-8.1 5.2-3 2.3-4.5 2.8-9.4 2.8-4.6 0-7.1.7-12.5 3.5-5.6 2.9-7.7 3.5-13.1 3.5-3.5 0-9.6.5-13.5 1.1-13.5 2.1-45.7 14.5-47 18.1-.3.7-.2 11 .3 22.8.8 21.6 3.5 40.9 7.4 53.5.9 2.7 2 8.8 2.6 13.5 1.1 9.4 3.2 14.7 8.3 20.6 1.9 2.2 4.1 5.7 4.9 7.7 1.7 3.9 5.7 5.4 5.7 2 0-1.3.3-1.4 1.2-.5 1.8 1.8 3.8 1.4 3.8-.7 0-1.5.5-1.8 2.1-1.4 1.4.4 2.6 0 3.3-.9.7-.9 2.3-1.8 3.6-2 2.1-.2 2.7-1.2 3.9-5.7 1.3-4.9 1.3-5.7-.2-8.3l-1.7-3 3.7.3c6.3.3 8 0 10.4-2.1 2.1-1.7 2.2-2.1.9-3-.8-.5-3-1-4.9-1-1.8 0-6.3-.7-10-1.5-3.6-.8-8.4-1.8-10.5-2.2-6.2-1.3-7.3-3.7-9.2-21.2-1.8-16.3-1.2-26.8 2-40.1.8-3 1.7-6.7 2-8.2l.6-2.7 10.4.6c6 .3 14.4.1 20.1-.6 8.1-1.1 9.9-1 10.6.1 1 1.5 1.4 4.7 2.9 23.3.6 7.7 1.8 16.9 2.6 20.5.8 3.6 2.1 12.8 2.9 20.5l1.5 14-2.7 11c-1.4 6-4.3 14.8-6.4 19.5-2 4.7-4.2 10.3-4.8 12.5-1.4 5-1.4 15.9-.1 20.5 1.3 4.4.1 8.9-5.6 20.8-5.9 12.4-10.7 24-13.8 33.7-3 9.3-5 12.6-9.6 16-4.2 3.1-7.6 4.1-20.4 6-12 1.9-17.1 4-23.3 9.8-2.7 2.5-11.8 8.4-20.6 13.2-22.1 12.2-36.7 18-36.7 14.5 0-.6-.7-1-1.5-1-.9 0-2.6-.6-3.8-1.4-1.2-.8-5.3-1.6-9.1-1.8-6.4-.3-7-.1-8.8 2.4-1.5 1.9-2.4 5.6-3.4 14.3-1 8.8-2 12.8-3.7 15.9-1.3 2.2-4.3 7.2-6.5 11.1-4.4 7.4-6.2 15.1-6.2 26.5 0 7 .8 8.2 5.1 7.8 3.1-.3 3.7-1 6.9-6.9 8.2-15.4 20-25.9 29.2-25.9 5.7 0 6.8-1.4 3.7-4.7-2.4-2.4-2.4-2.5-.4-3.9 1.1-.9 8.8-4.8 17-8.9 10.5-5.2 18.9-8.4 28-11 7.2-2 23.1-6.7 35.5-10.5 14.8-4.6 25.5-7.3 31.3-7.9 11.3-1.3 16.4-3.6 21.2-9.7 2.2-2.7 8.5-9.6 14-15.4 14.9-15.5 25-27.4 31.1-36.6l5.4-8.1 12.7 3.9c7.1 2.1 17.3 4.7 22.8 5.8 15.1 2.9 26.5 7 26.5 9.5 0 .6-.9 3.8-2 7.1-4.5 12.8-6 21.1-7 37.4-1.7 31-9.3 62.8-15.8 66.7-2.5 1.5-6 10.6-6.8 17.7-.7 6.2.4 7.8 9.6 12.7 3 1.6 8.7 5.4 12.5 8.5 12.9 10.3 20.9 13.5 37.3 14.9 9.9.9 12.8.3 13.6-2.9 1-3.9-.3-5.5-7.5-10.2-4.8-3.1-8.8-6.8-13.3-12.4-6-7.7-6.4-8.4-6.9-14.7-.3-4.8-1-7.1-2.2-8-1-.7-2.2-1-2.6-.7-2.9 1.7-2.2-19.7.9-29.1 1.1-3.3 4.5-11.5 7.5-18.2 3.1-6.6 8-19 11-27.5 3-8.4 8-20.4 11.1-26.6 11.8-23.6 12.2-26.1 5-37.7-6-9.6-10.9-13.8-32.9-27.9-21.4-13.8-29.3-18-41.6-22.2-5.7-2-10.7-3.9-11.2-4.3-.7-.7 2.8-12.7 4.4-14.6.4-.6 1.7-5.3 2.9-10.5 1.1-5.2 4.3-16.4 7-24.8 3.7-11.3 5-16.8 5-21.3 0-3.2.7-8.5 1.5-11.7.8-3.1 1.7-7.5 2-9.6l.7-3.9 6.1 9.4c5.3 8 6.9 9.7 11.1 11.7 2.7 1.3 6.4 2.6 8.2 2.9 3 .5 3.8.1 6.8-3.1 4.3-4.7 13-20.6 14.9-27.2.8-2.8 2.4-7.1 3.6-9.7 1.2-2.5 2.1-5.5 2.1-6.6 0-1.1.4-2.2.9-2.5 1.2-.7 5.7-13.9 7.2-20.9 1.1-5.4 1.1-6-.8-8.5-1.2-1.5-2.6-2.6-3.2-2.5-.6.2-1.1-.1-1.1-.6s-1-1.3-2.2-1.7c-1.3-.4-2.9-1.5-3.6-2.5-1.4-2.1-4.7-2.5-5.7-.8-.5.7-1.3.5-2.5-.6-2.4-2.2-4.8-1.6-7.1 1.5-2.7 3.7-3.4 8.3-1.5 10.2 1.4 1.4 1.3 1.7-.4 3.3-1.9 1.7-2 1.7-3.5-1.8-.8-2-1.5-3.9-1.5-4.3 0-.4-1.1-2.2-2.6-4.1-2.7-3.6-7-4.5-8.1-1.8-.3.9 1 4.1 3.1 7.4 2 3.3 3.6 6.7 3.6 7.8 0 2.5 5.7 14.3 8.2 17l2.1 2.2-2.7 4.5c-1.5 2.6-3.1 4.6-3.6 4.6s-2.1-2.2-3.5-5c-1.4-2.7-4.4-7.3-6.8-10.2-6.1-7.4-7.3-9.6-8.6-15.2-1.9-7.6-6.8-16.5-12.9-22.8-5.1-5.3-5.4-5.9-4-7.6.9-.9 1.9-2.7 2.2-4 .4-1.2 1.2-2.2 1.8-2.2.7 0 .8-1.3.5-3.5-.3-1.9-.1-3.7.4-4.1.5-.3.8-1.7.7-3.2-.2-2 .2-2.7 2.2-3.2 3.4-.8 3.6-3 .6-8.9-2.9-5.6-3.1-7.3-1.5-9.9.9-1.4.6-3.2-1.6-8.3-1.5-3.5-3.5-8.7-4.5-11.5-4.3-12.1-8.9-17.6-18.5-22-4.8-2.2-16.5-4-17.8-2.8z"/></svg>